<svg version="1.1" xmlns="http://www.w3.org/2000/svg" xmlns:xlink="http://www.w3.org/1999/xlink" width="404" height="775"><defs/><g><text fill="#eeeeee" stroke="none" font-family="Arial" font-size="24px" font-style="normal" font-weight="normal" text-decoration="none" x="0" y="0">UNREGISTERED</text><text fill="#eeeeee" stroke="none" font-family="Arial" font-size="24px" font-style="normal" font-weight="normal" text-decoration="none" x="0" y="30">UNREGISTERED</text><text fill="#eeeeee" stroke="none" font-family="Arial" font-size="24px" font-style="normal" font-weight="normal" text-decoration="none" x="0" y="60">UNREGISTERED</text><text fill="#eeeeee" stroke="none" font-family="Arial" font-size="24px" font-style="normal" font-weight="normal" text-decoration="none" x="0" y="90">UNREGISTERED</text><text fill="#eeeeee" stroke="none" font-family="Arial" font-size="24px" font-style="normal" font-weight="normal" text-decoration="none" x="0" y="120">UNREGISTERED</text><text fill="#eeeeee" stroke="none" font-family="Arial" font-size="24px" font-style="normal" font-weight="normal" text-decoration="none" x="0" y="150">UNREGISTERED</text><text fill="#eeeeee" stroke="none" font-family="Arial" font-size="24px" font-style="normal" font-weight="normal" text-decoration="none" x="0" y="180">UNREGISTERED</text><text fill="#eeeeee" stroke="none" font-family="Arial" font-size="24px" font-style="normal" font-weight="normal" text-decoration="none" x="0" y="210">UNREGISTERED</text><text fill="#eeeeee" stroke="none" font-family="Arial" font-size="24px" font-style="normal" font-weight="normal" text-decoration="none" x="0" y="240">UNREGISTERED</text><text fill="#eeeeee" stroke="none" font-family="Arial" font-size="24px" font-style="normal" font-weight="normal" text-decoration="none" x="0" y="270">UNREGISTERED</text><text fill="#eeeeee" stroke="none" font-family="Arial" font-size="24px" font-style="normal" font-weight="normal" text-decoration="none" x="0" y="300">UNREGISTERED</text><text fill="#eeeeee" stroke="none" font-family="Arial" font-size="24px" font-style="normal" font-weight="normal" text-decoration="none" x="0" y="330">UNREGISTERED</text><text fill="#eeeeee" stroke="none" font-family="Arial" font-size="24px" font-style="normal" font-weight="normal" text-decoration="none" x="0" y="360">UNREGISTERED</text><text fill="#eeeeee" stroke="none" font-family="Arial" font-size="24px" font-style="normal" font-weight="normal" text-decoration="none" x="0" y="390">UNREGISTERED</text><text fill="#eeeeee" stroke="none" font-family="Arial" font-size="24px" font-style="normal" font-weight="normal" text-decoration="none" x="0" y="420">UNREGISTERED</text><text fill="#eeeeee" stroke="none" font-family="Arial" font-size="24px" font-style="normal" font-weight="normal" text-decoration="none" x="0" y="450">UNREGISTERED</text><text fill="#eeeeee" stroke="none" font-family="Arial" font-size="24px" font-style="normal" font-weight="normal" text-decoration="none" x="0" y="480">UNREGISTERED</text><text fill="#eeeeee" stroke="none" font-family="Arial" font-size="24px" font-style="normal" font-weight="normal" text-decoration="none" x="0" y="510">UNREGISTERED</text><text fill="#eeeeee" stroke="none" font-family="Arial" font-size="24px" font-style="normal" font-weight="normal" text-decoration="none" x="0" y="540">UNREGISTERED</text><text fill="#eeeeee" stroke="none" font-family="Arial" font-size="24px" font-style="normal" font-weight="normal" text-decoration="none" x="0" y="570">UNREGISTERED</text><text fill="#eeeeee" stroke="none" font-family="Arial" font-size="24px" font-style="normal" font-weight="normal" text-decoration="none" x="0" y="600">UNREGISTERED</text><text fill="#eeeeee" stroke="none" font-family="Arial" font-size="24px" font-style="normal" font-weight="normal" text-decoration="none" x="0" y="630">UNREGISTERED</text><text fill="#eeeeee" stroke="none" font-family="Arial" font-size="24px" font-style="normal" font-weight="normal" text-decoration="none" x="0" y="660">UNREGISTERED</text><text fill="#eeeeee" stroke="none" font-family="Arial" font-size="24px" font-style="normal" font-weight="normal" text-decoration="none" x="0" y="690">UNREGISTERED</text><text fill="#eeeeee" stroke="none" font-family="Arial" font-size="24px" font-style="normal" font-weight="normal" text-decoration="none" x="0" y="720">UNREGISTERED</text><text fill="#eeeeee" stroke="none" font-family="Arial" font-size="24px" font-style="normal" font-weight="normal" text-decoration="none" x="0" y="750">UNREGISTERED</text><text fill="#eeeeee" stroke="none" font-family="Arial" font-size="24px" font-style="normal" font-weight="normal" text-decoration="none" x="200" y="0">UNREGISTERED</text><text fill="#eeeeee" stroke="none" font-family="Arial" font-size="24px" font-style="normal" font-weight="normal" text-decoration="none" x="200" y="30">UNREGISTERED</text><text fill="#eeeeee" stroke="none" font-family="Arial" font-size="24px" font-style="normal" font-weight="normal" text-decoration="none" x="200" y="60">UNREGISTERED</text><text fill="#eeeeee" stroke="none" font-family="Arial" font-size="24px" font-style="normal" font-weight="normal" text-decoration="none" x="200" y="90">UNREGISTERED</text><text fill="#eeeeee" stroke="none" font-family="Arial" font-size="24px" font-style="normal" font-weight="normal" text-decoration="none" x="200" y="120">UNREGISTERED</text><text fill="#eeeeee" stroke="none" font-family="Arial" font-size="24px" font-style="normal" font-weight="normal" text-decoration="none" x="200" y="150">UNREGISTERED</text><text fill="#eeeeee" stroke="none" font-family="Arial" font-size="24px" font-style="normal" font-weight="normal" text-decoration="none" x="200" y="180">UNREGISTERED</text><text fill="#eeeeee" stroke="none" font-family="Arial" font-size="24px" font-style="normal" font-weight="normal" text-decoration="none" x="200" y="210">UNREGISTERED</text><text fill="#eeeeee" stroke="none" font-family="Arial" font-size="24px" font-style="normal" font-weight="normal" text-decoration="none" x="200" y="240">UNREGISTERED</text><text fill="#eeeeee" stroke="none" font-family="Arial" font-size="24px" font-style="normal" font-weight="normal" text-decoration="none" x="200" y="270">UNREGISTERED</text><text fill="#eeeeee" stroke="none" font-family="Arial" font-size="24px" font-style="normal" font-weight="normal" text-decoration="none" x="200" y="300">UNREGISTERED</text><text fill="#eeeeee" stroke="none" font-family="Arial" font-size="24px" font-style="normal" font-weight="normal" text-decoration="none" x="200" y="330">UNREGISTERED</text><text fill="#eeeeee" stroke="none" font-family="Arial" font-size="24px" font-style="normal" font-weight="normal" text-decoration="none" x="200" y="360">UNREGISTERED</text><text fill="#eeeeee" stroke="none" font-family="Arial" font-size="24px" font-style="normal" font-weight="normal" text-decoration="none" x="200" y="390">UNREGISTERED</text><text fill="#eeeeee" stroke="none" font-family="Arial" font-size="24px" font-style="normal" font-weight="normal" text-decoration="none" x="200" y="420">UNREGISTERED</text><text fill="#eeeeee" stroke="none" font-family="Arial" font-size="24px" font-style="normal" font-weight="normal" text-decoration="none" x="200" y="450">UNREGISTERED</text><text fill="#eeeeee" stroke="none" font-family="Arial" font-size="24px" font-style="normal" font-weight="normal" text-decoration="none" x="200" y="480">UNREGISTERED</text><text fill="#eeeeee" stroke="none" font-family="Arial" font-size="24px" font-style="normal" font-weight="normal" text-decoration="none" x="200" y="510">UNREGISTERED</text><text fill="#eeeeee" stroke="none" font-family="Arial" font-size="24px" font-style="normal" font-weight="normal" text-decoration="none" x="200" y="540">UNREGISTERED</text><text fill="#eeeeee" stroke="none" font-family="Arial" font-size="24px" font-style="normal" font-weight="normal" text-decoration="none" x="200" y="570">UNREGISTERED</text><text fill="#eeeeee" stroke="none" font-family="Arial" font-size="24px" font-style="normal" font-weight="normal" text-decoration="none" x="200" y="600">UNREGISTERED</text><text fill="#eeeeee" stroke="none" font-family="Arial" font-size="24px" font-style="normal" font-weight="normal" text-decoration="none" x="200" y="630">UNREGISTERED</text><text fill="#eeeeee" stroke="none" font-family="Arial" font-size="24px" font-style="normal" font-weight="normal" text-decoration="none" x="200" y="660">UNREGISTERED</text><text fill="#eeeeee" stroke="none" font-family="Arial" font-size="24px" font-style="normal" font-weight="normal" text-decoration="none" x="200" y="690">UNREGISTERED</text><text fill="#eeeeee" stroke="none" font-family="Arial" font-size="24px" font-style="normal" font-weight="normal" text-decoration="none" x="200" y="720">UNREGISTERED</text><text fill="#eeeeee" stroke="none" font-family="Arial" font-size="24px" font-style="normal" font-weight="normal" text-decoration="none" x="200" y="750">UNREGISTERED</text><text fill="#eeeeee" stroke="none" font-family="Arial" font-size="24px" font-style="normal" font-weight="normal" text-decoration="none" x="400" y="0">UNREGISTERED</text><text fill="#eeeeee" stroke="none" font-family="Arial" font-size="24px" font-style="normal" font-weight="normal" text-decoration="none" x="400" y="30">UNREGISTERED</text><text fill="#eeeeee" stroke="none" font-family="Arial" font-size="24px" font-style="normal" font-weight="normal" text-decoration="none" x="400" y="60">UNREGISTERED</text><text fill="#eeeeee" stroke="none" font-family="Arial" font-size="24px" font-style="normal" font-weight="normal" text-decoration="none" x="400" y="90">UNREGISTERED</text><text fill="#eeeeee" stroke="none" font-family="Arial" font-size="24px" font-style="normal" font-weight="normal" text-decoration="none" x="400" y="120">UNREGISTERED</text><text fill="#eeeeee" stroke="none" font-family="Arial" font-size="24px" font-style="normal" font-weight="normal" text-decoration="none" x="400" y="150">UNREGISTERED</text><text fill="#eeeeee" stroke="none" font-family="Arial" font-size="24px" font-style="normal" font-weight="normal" text-decoration="none" x="400" y="180">UNREGISTERED</text><text fill="#eeeeee" stroke="none" font-family="Arial" font-size="24px" font-style="normal" font-weight="normal" text-decoration="none" x="400" y="210">UNREGISTERED</text><text fill="#eeeeee" stroke="none" font-family="Arial" font-size="24px" font-style="normal" font-weight="normal" text-decoration="none" x="400" y="240">UNREGISTERED</text><text fill="#eeeeee" stroke="none" font-family="Arial" font-size="24px" font-style="normal" font-weight="normal" text-decoration="none" x="400" y="270">UNREGISTERED</text><text fill="#eeeeee" stroke="none" font-family="Arial" font-size="24px" font-style="normal" font-weight="normal" text-decoration="none" x="400" y="300">UNREGISTERED</text><text fill="#eeeeee" stroke="none" font-family="Arial" font-size="24px" font-style="normal" font-weight="normal" text-decoration="none" x="400" y="330">UNREGISTERED</text><text fill="#eeeeee" stroke="none" font-family="Arial" font-size="24px" font-style="normal" font-weight="normal" text-decoration="none" x="400" y="360">UNREGISTERED</text><text fill="#eeeeee" stroke="none" font-family="Arial" font-size="24px" font-style="normal" font-weight="normal" text-decoration="none" x="400" y="390">UNREGISTERED</text><text fill="#eeeeee" stroke="none" font-family="Arial" font-size="24px" font-style="normal" font-weight="normal" text-decoration="none" x="400" y="420">UNREGISTERED</text><text fill="#eeeeee" stroke="none" font-family="Arial" font-size="24px" font-style="normal" font-weight="normal" text-decoration="none" x="400" y="450">UNREGISTERED</text><text fill="#eeeeee" stroke="none" font-family="Arial" font-size="24px" font-style="normal" font-weight="normal" text-decoration="none" x="400" y="480">UNREGISTERED</text><text fill="#eeeeee" stroke="none" font-family="Arial" font-size="24px" font-style="normal" font-weight="normal" text-decoration="none" x="400" y="510">UNREGISTERED</text><text fill="#eeeeee" stroke="none" font-family="Arial" font-size="24px" font-style="normal" font-weight="normal" text-decoration="none" x="400" y="540">UNREGISTERED</text><text fill="#eeeeee" stroke="none" font-family="Arial" font-size="24px" font-style="normal" font-weight="normal" text-decoration="none" x="400" y="570">UNREGISTERED</text><text fill="#eeeeee" stroke="none" font-family="Arial" font-size="24px" font-style="normal" font-weight="normal" text-decoration="none" x="400" y="600">UNREGISTERED</text><text fill="#eeeeee" stroke="none" font-family="Arial" font-size="24px" font-style="normal" font-weight="normal" text-decoration="none" x="400" y="630">UNREGISTERED</text><text fill="#eeeeee" stroke="none" font-family="Arial" font-size="24px" font-style="normal" font-weight="normal" text-decoration="none" x="400" y="660">UNREGISTERED</text><text fill="#eeeeee" stroke="none" font-family="Arial" font-size="24px" font-style="normal" font-weight="normal" text-decoration="none" x="400" y="690">UNREGISTERED</text><text fill="#eeeeee" stroke="none" font-family="Arial" font-size="24px" font-style="normal" font-weight="normal" text-decoration="none" x="400" y="720">UNREGISTERED</text><text fill="#eeeeee" stroke="none" font-family="Arial" font-size="24px" font-style="normal" font-weight="normal" text-decoration="none" x="400" y="750">UNREGISTERED</text><g transform="translate(-270,-222) scale(1,1)"><rect fill="#ffffff" stroke="none" x="360" y="232" width="304" height="21"/></g><g transform="translate(-270,-222) scale(1,1)"><path fill="none" stroke="#000000" d="M 360 232 L 664 232 L 664 253 L 360 253 L 360 232 Z Z" stroke-miterlimit="10" stroke-width="2"/></g><g transform="translate(-270,-222) scale(1,1)"><path fill="none" stroke="#000000" d="M 360 616 L 360 232 L 664 232 L 664 616" stroke-miterlimit="10" stroke-width="2"/></g><g transform="translate(-270,-222) scale(1,1)"><g><path fill="none" stroke="none"/><text fill="#000000" stroke="none" font-family="Arial" font-size="13px" font-style="normal" font-weight="normal" text-decoration="none" x="463.95458984375" y="249">ActivityPartition1</text></g></g><g transform="translate(-270,-222) scale(1,1)"><path fill="#C0C0C0" stroke="none" d="M 503 296.5 C 503 291.2532944 507.2532944 287 512.5 287 C 517.7467056 287 522 291.2532944 522 296.5 C 522 301.7467056 517.7467056 306 512.5 306 C 507.2532944 306 503 301.7467056 503 296.5 Z" opacity="0.2"/></g><g transform="translate(-270,-222) scale(1,1)"><path fill="#000000" stroke="none" d="M 496 289.5 C 496 284.2532944 500.2532944 280 505.5 280 C 510.7467056 280 515 284.2532944 515 289.5 C 515 294.7467056 510.7467056 299 505.5 299 C 500.2532944 299 496 294.7467056 496 289.5 Z"/></g><g transform="translate(-270,-222) scale(1,1)"><path fill="#C0C0C0" stroke="none" d="M 489 367 L 534 367 Q 544 367 544 377 L 544 397 Q 544 407 534 407 L 489 407 Q 479 407 479 397 L 479 377 Q 479 367 489 367 Z" opacity="0.2"/></g><g transform="translate(-270,-222) scale(1,1)"><path fill="#ffffff" stroke="none" d="M 482 360 L 527 360 Q 537 360 537 370 L 537 390 Q 537 400 527 400 L 482 400 Q 472 400 472 390 L 472 370 Q 472 360 482 360 Z"/></g><g transform="translate(-270,-222) scale(1,1)"><path fill="none" stroke="#000000" d="M 482 360 L 527 360 Q 537 360 537 370 L 537 390 Q 537 400 527 400 L 482 400 Q 472 400 472 390 L 472 370 Q 472 360 482 360 Z" stroke-miterlimit="10"/></g><g transform="translate(-270,-222) scale(1,1)"><g><path fill="none" stroke="none"/><text fill="#000000" stroke="none" font-family="Arial" font-size="13px" font-style="normal" font-weight="bold" text-decoration="none" x="478.5" y="379.5">任务运行</text></g></g><g transform="translate(-270,-222) scale(1,1)"><path fill="none" stroke="#000000" d="M 505 300 L 504 359" stroke-miterlimit="10"/></g><g transform="translate(-270,-222) scale(1,1)"><path fill="none" stroke="#000000" d="M 499.96331074622276 348.76744705029876 L 504 359 L 508.3811372346954 348.9101220755271" stroke-miterlimit="10"/></g><g transform="translate(-270,-222) scale(1,1)"><path fill="#C0C0C0" stroke="none" d="M 401 479 L 626.7763671875 479 Q 636.7763671875 479 636.7763671875 489 L 636.7763671875 509 Q 636.7763671875 519 626.7763671875 519 L 401 519 Q 391 519 391 509 L 391 489 Q 391 479 401 479 Z" opacity="0.2"/></g><g transform="translate(-270,-222) scale(1,1)"><path fill="#ffffff" stroke="none" d="M 394 472 L 619.7763671875 472 Q 629.7763671875 472 629.7763671875 482 L 629.7763671875 502 Q 629.7763671875 512 619.7763671875 512 L 394 512 Q 384 512 384 502 L 384 482 Q 384 472 394 472 Z"/></g><g transform="translate(-270,-222) scale(1,1)"><path fill="none" stroke="#000000" d="M 394 472 L 619.7763671875 472 Q 629.7763671875 472 629.7763671875 482 L 629.7763671875 502 Q 629.7763671875 512 619.7763671875 512 L 394 512 Q 384 512 384 502 L 384 482 Q 384 472 394 472 Z" stroke-miterlimit="10"/></g><g transform="translate(-270,-222) scale(1,1)"><g><path fill="none" stroke="none"/><text fill="#000000" stroke="none" font-family="Arial" font-size="13px" font-style="normal" font-weight="bold" text-decoration="none" x="395.655029296875" y="491.5">CADPuMainCtr 将消息推送给消息队列</text></g></g><g transform="translate(-270,-222) scale(1,1)"><path fill="none" stroke="#000000" d="M 504 401 L 506 471" stroke-miterlimit="10"/></g><g transform="translate(-270,-222) scale(1,1)"><path fill="none" stroke="#000000" d="M 501.5019556671291 460.96169351038094 L 506 471 L 509.9175569405878 460.7212477597107" stroke-miterlimit="10"/></g><g transform="translate(-270,-222) scale(1,1)"><path fill="#C0C0C0" stroke="none" d="M 473 567 L 560 567 Q 570 567 570 577 L 570 597 Q 570 607 560 607 L 473 607 Q 463 607 463 597 L 463 577 Q 463 567 473 567 Z" opacity="0.2"/></g><g transform="translate(-270,-222) scale(1,1)"><path fill="#ffffff" stroke="none" d="M 466 560 L 553 560 Q 563 560 563 570 L 563 590 Q 563 600 553 600 L 466 600 Q 456 600 456 590 L 456 570 Q 456 560 466 560 Z"/></g><g transform="translate(-270,-222) scale(1,1)"><path fill="none" stroke="#000000" d="M 466 560 L 553 560 Q 563 560 563 570 L 563 590 Q 563 600 553 600 L 466 600 Q 456 600 456 590 L 456 570 Q 456 560 466 560 Z" stroke-miterlimit="10"/></g><g transform="translate(-270,-222) scale(1,1)"><g><path fill="none" stroke="none"/><text fill="#000000" stroke="none" font-family="Arial" font-size="13px" font-style="normal" font-weight="bold" text-decoration="none" x="464" y="579.5">找到空闲的线程</text></g></g><g transform="translate(-270,-222) scale(1,1)"><path fill="none" stroke="#000000" d="M 507 513 L 508 559" stroke-miterlimit="10"/></g><g transform="translate(-270,-222) scale(1,1)"><path fill="none" stroke="#000000" d="M 503.57060105042297 548.9312153193404 L 508 559 L 511.9876478921751 548.7482360401718" stroke-miterlimit="10"/></g><g transform="translate(-270,-222) scale(1,1)"><rect fill="#ffffff" stroke="none" x="280" y="688" width="115.0908203125" height="21"/></g><g transform="translate(-270,-222) scale(1,1)"><path fill="none" stroke="#000000" d="M 280 688 L 395.0908203125 688 L 395.0908203125 709 L 280 709 L 280 688 Z Z" stroke-miterlimit="10" stroke-width="2"/></g><g transform="translate(-270,-222) scale(1,1)"><path fill="none" stroke="#000000" d="M 280 987 L 280 688 L 395.0908203125 688 L 395.0908203125 987" stroke-miterlimit="10" stroke-width="2"/></g><g transform="translate(-270,-222) scale(1,1)"><g><path fill="none" stroke="none"/><text fill="#000000" stroke="none" font-family="Arial" font-size="13px" font-style="normal" font-weight="normal" text-decoration="none" x="318.04541015625" y="705">子线程</text></g></g><g transform="translate(-270,-222) scale(1,1)"><path fill="none" stroke="#000000" d="M 505 601 L 499 639" stroke-miterlimit="10"/></g><g transform="translate(-270,-222) scale(1,1)"><path fill="none" stroke="#000000" d="M 496.4269911828768 628.3051589246494 L 499 639 L 504.74300266545225 629.6182133692665" stroke-miterlimit="10"/></g><g transform="translate(-270,-222) scale(1,1)"><path fill="#C0C0C0" stroke="none" d="M 474 647 L 537 647 Q 540 647 540 650 L 540 649 Q 540 652 537 652 L 474 652 Q 471 652 471 649 L 471 650 Q 471 647 474 647 Z" opacity="0.2"/></g><g transform="translate(-270,-222) scale(1,1)"><path fill="#000000" stroke="none" d="M 467 640 L 530 640 Q 533 640 533 643 L 533 643 Q 533 646 530 646 L 467 646 Q 464 646 464 643 L 464 643 Q 464 640 467 640 Z"/></g><g transform="translate(-270,-222) scale(1,1)"><path fill="none" stroke="#000000" d="M 494 646 L 355 799" stroke-miterlimit="10"/></g><g transform="translate(-270,-222) scale(1,1)"><path fill="none" stroke="#000000" d="M 358.7179953174148 788.6473911104649 L 355 799 L 364.94941965012623 794.3086197526014" stroke-miterlimit="10"/></g><g transform="translate(-270,-222) scale(1,1)"><path fill="#C0C0C0" stroke="none" d="M 321 807 L 366 807 Q 376 807 376 817 L 376 837 Q 376 847 366 847 L 321 847 Q 311 847 311 837 L 311 817 Q 311 807 321 807 Z" opacity="0.2"/></g><g transform="translate(-270,-222) scale(1,1)"><path fill="#ffffff" stroke="none" d="M 314 800 L 359 800 Q 369 800 369 810 L 369 830 Q 369 840 359 840 L 314 840 Q 304 840 304 830 L 304 810 Q 304 800 314 800 Z"/></g><g transform="translate(-270,-222) scale(1,1)"><path fill="none" stroke="#000000" d="M 314 800 L 359 800 Q 369 800 369 810 L 369 830 Q 369 840 359 840 L 314 840 Q 304 840 304 830 L 304 810 Q 304 800 314 800 Z" stroke-miterlimit="10"/></g><g transform="translate(-270,-222) scale(1,1)"><g><path fill="none" stroke="none"/><text fill="#000000" stroke="none" font-family="Arial" font-size="13px" font-style="normal" font-weight="bold" text-decoration="none" x="310.5" y="819.5">任务处理</text></g></g></g></svg>