<svg version="1.1" xmlns="http://www.w3.org/2000/svg" xmlns:xlink="http://www.w3.org/1999/xlink" width="700" height="588"><defs/><g><text fill="#eeeeee" stroke="none" font-family="Arial" font-size="24px" font-style="normal" font-weight="normal" text-decoration="none" x="0" y="0">UNREGISTERED</text><text fill="#eeeeee" stroke="none" font-family="Arial" font-size="24px" font-style="normal" font-weight="normal" text-decoration="none" x="0" y="30">UNREGISTERED</text><text fill="#eeeeee" stroke="none" font-family="Arial" font-size="24px" font-style="normal" font-weight="normal" text-decoration="none" x="0" y="60">UNREGISTERED</text><text fill="#eeeeee" stroke="none" font-family="Arial" font-size="24px" font-style="normal" font-weight="normal" text-decoration="none" x="0" y="90">UNREGISTERED</text><text fill="#eeeeee" stroke="none" font-family="Arial" font-size="24px" font-style="normal" font-weight="normal" text-decoration="none" x="0" y="120">UNREGISTERED</text><text fill="#eeeeee" stroke="none" font-family="Arial" font-size="24px" font-style="normal" font-weight="normal" text-decoration="none" x="0" y="150">UNREGISTERED</text><text fill="#eeeeee" stroke="none" font-family="Arial" font-size="24px" font-style="normal" font-weight="normal" text-decoration="none" x="0" y="180">UNREGISTERED</text><text fill="#eeeeee" stroke="none" font-family="Arial" font-size="24px" font-style="normal" font-weight="normal" text-decoration="none" x="0" y="210">UNREGISTERED</text><text fill="#eeeeee" stroke="none" font-family="Arial" font-size="24px" font-style="normal" font-weight="normal" text-decoration="none" x="0" y="240">UNREGISTERED</text><text fill="#eeeeee" stroke="none" font-family="Arial" font-size="24px" font-style="normal" font-weight="normal" text-decoration="none" x="0" y="270">UNREGISTERED</text><text fill="#eeeeee" stroke="none" font-family="Arial" font-size="24px" font-style="normal" font-weight="normal" text-decoration="none" x="0" y="300">UNREGISTERED</text><text fill="#eeeeee" stroke="none" font-family="Arial" font-size="24px" font-style="normal" font-weight="normal" text-decoration="none" x="0" y="330">UNREGISTERED</text><text fill="#eeeeee" stroke="none" font-family="Arial" font-size="24px" font-style="normal" font-weight="normal" text-decoration="none" x="0" y="360">UNREGISTERED</text><text fill="#eeeeee" stroke="none" font-family="Arial" font-size="24px" font-style="normal" font-weight="normal" text-decoration="none" x="0" y="390">UNREGISTERED</text><text fill="#eeeeee" stroke="none" font-family="Arial" font-size="24px" font-style="normal" font-weight="normal" text-decoration="none" x="0" y="420">UNREGISTERED</text><text fill="#eeeeee" stroke="none" font-family="Arial" font-size="24px" font-style="normal" font-weight="normal" text-decoration="none" x="0" y="450">UNREGISTERED</text><text fill="#eeeeee" stroke="none" font-family="Arial" font-size="24px" font-style="normal" font-weight="normal" text-decoration="none" x="0" y="480">UNREGISTERED</text><text fill="#eeeeee" stroke="none" font-family="Arial" font-size="24px" font-style="normal" font-weight="normal" text-decoration="none" x="0" y="510">UNREGISTERED</text><text fill="#eeeeee" stroke="none" font-family="Arial" font-size="24px" font-style="normal" font-weight="normal" text-decoration="none" x="0" y="540">UNREGISTERED</text><text fill="#eeeeee" stroke="none" font-family="Arial" font-size="24px" font-style="normal" font-weight="normal" text-decoration="none" x="0" y="570">UNREGISTERED</text><text fill="#eeeeee" stroke="none" font-family="Arial" font-size="24px" font-style="normal" font-weight="normal" text-decoration="none" x="200" y="0">UNREGISTERED</text><text fill="#eeeeee" stroke="none" font-family="Arial" font-size="24px" font-style="normal" font-weight="normal" text-decoration="none" x="200" y="30">UNREGISTERED</text><text fill="#eeeeee" stroke="none" font-family="Arial" font-size="24px" font-style="normal" font-weight="normal" text-decoration="none" x="200" y="60">UNREGISTERED</text><text fill="#eeeeee" stroke="none" font-family="Arial" font-size="24px" font-style="normal" font-weight="normal" text-decoration="none" x="200" y="90">UNREGISTERED</text><text fill="#eeeeee" stroke="none" font-family="Arial" font-size="24px" font-style="normal" font-weight="normal" text-decoration="none" x="200" y="120">UNREGISTERED</text><text fill="#eeeeee" stroke="none" font-family="Arial" font-size="24px" font-style="normal" font-weight="normal" text-decoration="none" x="200" y="150">UNREGISTERED</text><text fill="#eeeeee" stroke="none" font-family="Arial" font-size="24px" font-style="normal" font-weight="normal" text-decoration="none" x="200" y="180">UNREGISTERED</text><text fill="#eeeeee" stroke="none" font-family="Arial" font-size="24px" font-style="normal" font-weight="normal" text-decoration="none" x="200" y="210">UNREGISTERED</text><text fill="#eeeeee" stroke="none" font-family="Arial" font-size="24px" font-style="normal" font-weight="normal" text-decoration="none" x="200" y="240">UNREGISTERED</text><text fill="#eeeeee" stroke="none" font-family="Arial" font-size="24px" font-style="normal" font-weight="normal" text-decoration="none" x="200" y="270">UNREGISTERED</text><text fill="#eeeeee" stroke="none" font-family="Arial" font-size="24px" font-style="normal" font-weight="normal" text-decoration="none" x="200" y="300">UNREGISTERED</text><text fill="#eeeeee" stroke="none" font-family="Arial" font-size="24px" font-style="normal" font-weight="normal" text-decoration="none" x="200" y="330">UNREGISTERED</text><text fill="#eeeeee" stroke="none" font-family="Arial" font-size="24px" font-style="normal" font-weight="normal" text-decoration="none" x="200" y="360">UNREGISTERED</text><text fill="#eeeeee" stroke="none" font-family="Arial" font-size="24px" font-style="normal" font-weight="normal" text-decoration="none" x="200" y="390">UNREGISTERED</text><text fill="#eeeeee" stroke="none" font-family="Arial" font-size="24px" font-style="normal" font-weight="normal" text-decoration="none" x="200" y="420">UNREGISTERED</text><text fill="#eeeeee" stroke="none" font-family="Arial" font-size="24px" font-style="normal" font-weight="normal" text-decoration="none" x="200" y="450">UNREGISTERED</text><text fill="#eeeeee" stroke="none" font-family="Arial" font-size="24px" font-style="normal" font-weight="normal" text-decoration="none" x="200" y="480">UNREGISTERED</text><text fill="#eeeeee" stroke="none" font-family="Arial" font-size="24px" font-style="normal" font-weight="normal" text-decoration="none" x="200" y="510">UNREGISTERED</text><text fill="#eeeeee" stroke="none" font-family="Arial" font-size="24px" font-style="normal" font-weight="normal" text-decoration="none" x="200" y="540">UNREGISTERED</text><text fill="#eeeeee" stroke="none" font-family="Arial" font-size="24px" font-style="normal" font-weight="normal" text-decoration="none" x="200" y="570">UNREGISTERED</text><text fill="#eeeeee" stroke="none" font-family="Arial" font-size="24px" font-style="normal" font-weight="normal" text-decoration="none" x="400" y="0">UNREGISTERED</text><text fill="#eeeeee" stroke="none" font-family="Arial" font-size="24px" font-style="normal" font-weight="normal" text-decoration="none" x="400" y="30">UNREGISTERED</text><text fill="#eeeeee" stroke="none" font-family="Arial" font-size="24px" font-style="normal" font-weight="normal" text-decoration="none" x="400" y="60">UNREGISTERED</text><text fill="#eeeeee" stroke="none" font-family="Arial" font-size="24px" font-style="normal" font-weight="normal" text-decoration="none" x="400" y="90">UNREGISTERED</text><text fill="#eeeeee" stroke="none" font-family="Arial" font-size="24px" font-style="normal" font-weight="normal" text-decoration="none" x="400" y="120">UNREGISTERED</text><text fill="#eeeeee" stroke="none" font-family="Arial" font-size="24px" font-style="normal" font-weight="normal" text-decoration="none" x="400" y="150">UNREGISTERED</text><text fill="#eeeeee" stroke="none" font-family="Arial" font-size="24px" font-style="normal" font-weight="normal" text-decoration="none" x="400" y="180">UNREGISTERED</text><text fill="#eeeeee" stroke="none" font-family="Arial" font-size="24px" font-style="normal" font-weight="normal" text-decoration="none" x="400" y="210">UNREGISTERED</text><text fill="#eeeeee" stroke="none" font-family="Arial" font-size="24px" font-style="normal" font-weight="normal" text-decoration="none" x="400" y="240">UNREGISTERED</text><text fill="#eeeeee" stroke="none" font-family="Arial" font-size="24px" font-style="normal" font-weight="normal" text-decoration="none" x="400" y="270">UNREGISTERED</text><text fill="#eeeeee" stroke="none" font-family="Arial" font-size="24px" font-style="normal" font-weight="normal" text-decoration="none" x="400" y="300">UNREGISTERED</text><text fill="#eeeeee" stroke="none" font-family="Arial" font-size="24px" font-style="normal" font-weight="normal" text-decoration="none" x="400" y="330">UNREGISTERED</text><text fill="#eeeeee" stroke="none" font-family="Arial" font-size="24px" font-style="normal" font-weight="normal" text-decoration="none" x="400" y="360">UNREGISTERED</text><text fill="#eeeeee" stroke="none" font-family="Arial" font-size="24px" font-style="normal" font-weight="normal" text-decoration="none" x="400" y="390">UNREGISTERED</text><text fill="#eeeeee" stroke="none" font-family="Arial" font-size="24px" font-style="normal" font-weight="normal" text-decoration="none" x="400" y="420">UNREGISTERED</text><text fill="#eeeeee" stroke="none" font-family="Arial" font-size="24px" font-style="normal" font-weight="normal" text-decoration="none" x="400" y="450">UNREGISTERED</text><text fill="#eeeeee" stroke="none" font-family="Arial" font-size="24px" font-style="normal" font-weight="normal" text-decoration="none" x="400" y="480">UNREGISTERED</text><text fill="#eeeeee" stroke="none" font-family="Arial" font-size="24px" font-style="normal" font-weight="normal" text-decoration="none" x="400" y="510">UNREGISTERED</text><text fill="#eeeeee" stroke="none" font-family="Arial" font-size="24px" font-style="normal" font-weight="normal" text-decoration="none" x="400" y="540">UNREGISTERED</text><text fill="#eeeeee" stroke="none" font-family="Arial" font-size="24px" font-style="normal" font-weight="normal" text-decoration="none" x="400" y="570">UNREGISTERED</text><text fill="#eeeeee" stroke="none" font-family="Arial" font-size="24px" font-style="normal" font-weight="normal" text-decoration="none" x="600" y="0">UNREGISTERED</text><text fill="#eeeeee" stroke="none" font-family="Arial" font-size="24px" font-style="normal" font-weight="normal" text-decoration="none" x="600" y="30">UNREGISTERED</text><text fill="#eeeeee" stroke="none" font-family="Arial" font-size="24px" font-style="normal" font-weight="normal" text-decoration="none" x="600" y="60">UNREGISTERED</text><text fill="#eeeeee" stroke="none" font-family="Arial" font-size="24px" font-style="normal" font-weight="normal" text-decoration="none" x="600" y="90">UNREGISTERED</text><text fill="#eeeeee" stroke="none" font-family="Arial" font-size="24px" font-style="normal" font-weight="normal" text-decoration="none" x="600" y="120">UNREGISTERED</text><text fill="#eeeeee" stroke="none" font-family="Arial" font-size="24px" font-style="normal" font-weight="normal" text-decoration="none" x="600" y="150">UNREGISTERED</text><text fill="#eeeeee" stroke="none" font-family="Arial" font-size="24px" font-style="normal" font-weight="normal" text-decoration="none" x="600" y="180">UNREGISTERED</text><text fill="#eeeeee" stroke="none" font-family="Arial" font-size="24px" font-style="normal" font-weight="normal" text-decoration="none" x="600" y="210">UNREGISTERED</text><text fill="#eeeeee" stroke="none" font-family="Arial" font-size="24px" font-style="normal" font-weight="normal" text-decoration="none" x="600" y="240">UNREGISTERED</text><text fill="#eeeeee" stroke="none" font-family="Arial" font-size="24px" font-style="normal" font-weight="normal" text-decoration="none" x="600" y="270">UNREGISTERED</text><text fill="#eeeeee" stroke="none" font-family="Arial" font-size="24px" font-style="normal" font-weight="normal" text-decoration="none" x="600" y="300">UNREGISTERED</text><text fill="#eeeeee" stroke="none" font-family="Arial" font-size="24px" font-style="normal" font-weight="normal" text-decoration="none" x="600" y="330">UNREGISTERED</text><text fill="#eeeeee" stroke="none" font-family="Arial" font-size="24px" font-style="normal" font-weight="normal" text-decoration="none" x="600" y="360">UNREGISTERED</text><text fill="#eeeeee" stroke="none" font-family="Arial" font-size="24px" font-style="normal" font-weight="normal" text-decoration="none" x="600" y="390">UNREGISTERED</text><text fill="#eeeeee" stroke="none" font-family="Arial" font-size="24px" font-style="normal" font-weight="normal" text-decoration="none" x="600" y="420">UNREGISTERED</text><text fill="#eeeeee" stroke="none" font-family="Arial" font-size="24px" font-style="normal" font-weight="normal" text-decoration="none" x="600" y="450">UNREGISTERED</text><text fill="#eeeeee" stroke="none" font-family="Arial" font-size="24px" font-style="normal" font-weight="normal" text-decoration="none" x="600" y="480">UNREGISTERED</text><text fill="#eeeeee" stroke="none" font-family="Arial" font-size="24px" font-style="normal" font-weight="normal" text-decoration="none" x="600" y="510">UNREGISTERED</text><text fill="#eeeeee" stroke="none" font-family="Arial" font-size="24px" font-style="normal" font-weight="normal" text-decoration="none" x="600" y="540">UNREGISTERED</text><text fill="#eeeeee" stroke="none" font-family="Arial" font-size="24px" font-style="normal" font-weight="normal" text-decoration="none" x="600" y="570">UNREGISTERED</text><g transform="translate(-94,-302) scale(1,1)"><rect fill="#C0C0C0" stroke="none" x="375" y="319" width="176" height="96" opacity="0.2"/></g><g transform="translate(-94,-302) scale(1,1)"><rect fill="#ffffff" stroke="none" x="368" y="312" width="176" height="96"/></g><g transform="translate(-94,-302) scale(1,1)"><path fill="none" stroke="#000000" d="M 368 312 L 544 312 L 544 408 L 368 408 L 368 312 Z Z" stroke-miterlimit="10"/></g><g transform="translate(-94,-302) scale(1,1)"><rect fill="#ffffff" stroke="none" x="368" y="312" width="176" height="96"/></g><g transform="translate(-94,-302) scale(1,1)"><path fill="none" stroke="#000000" d="M 368 312 L 544 312 L 544 408 L 368 408 L 368 312 Z Z" stroke-miterlimit="10"/></g><g transform="translate(-94,-302) scale(1,1)"><g><path fill="none" stroke="none"/><text fill="#000000" stroke="none" font-family="Arial" font-size="13px" font-style="normal" font-weight="bold" text-decoration="none" x="410.128662109375" y="331.5">CADPuMainCtrl</text><path fill="none" stroke="#000000" d="M 504.38818359375 331.5 L 407.61181640625 331.5" stroke-miterlimit="10"/></g></g><g transform="translate(-94,-302) scale(1,1)"><rect fill="#C0C0C0" stroke="none" x="111" y="567" width="680" height="320" opacity="0.2"/></g><g transform="translate(-94,-302) scale(1,1)"><rect fill="#ffffff" stroke="none" x="104" y="560" width="680" height="320"/></g><g transform="translate(-94,-302) scale(1,1)"><path fill="none" stroke="#000000" d="M 104 560 L 784 560 L 784 880 L 104 880 L 104 560 Z Z" stroke-miterlimit="10"/></g><g transform="translate(-94,-302) scale(1,1)"><rect fill="#ffffff" stroke="none" x="104" y="560" width="680" height="320"/></g><g transform="translate(-94,-302) scale(1,1)"><path fill="none" stroke="#000000" d="M 104 560 L 784 560 L 784 880 L 104 880 L 104 560 Z Z" stroke-miterlimit="10"/></g><g transform="translate(-94,-302) scale(1,1)"><g><path fill="none" stroke="none"/><text fill="#000000" stroke="none" font-family="Arial" font-size="13px" font-style="normal" font-weight="bold" text-decoration="none" x="411.5" y="579.5">任务线程池</text><path fill="none" stroke="#000000" d="M 479 579.5 L 409 579.5" stroke-miterlimit="10"/></g></g><g transform="translate(-94,-302) scale(1,1)"><path fill="#C0C0C0" stroke="none" d="M 223 761 L 323.47265625 761 L 323.47265625 794 L 223 794" opacity="0.2"/></g><g transform="translate(-94,-302) scale(1,1)"><path fill="#C0C0C0" stroke="none" d="M 223 761 L 233 751 L 333.47265625 751 L 323.47265625 761" opacity="0.2"/></g><g transform="translate(-94,-302) scale(1,1)"><path fill="#C0C0C0" stroke="none" d="M 333.47265625 751 L 323.47265625 761 L 323.47265625 794 L 333.47265625 784" opacity="0.2"/></g><g transform="translate(-94,-302) scale(1,1)"><path fill="#ffffff" stroke="none" d="M 216 754 L 316.47265625 754 L 316.47265625 787 L 216 787"/></g><g transform="translate(-94,-302) scale(1,1)"><path fill="#ffffff" stroke="none" d="M 216 754 L 226 744 L 326.47265625 744 L 316.47265625 754"/></g><g transform="translate(-94,-302) scale(1,1)"><path fill="#ffffff" stroke="none" d="M 326.47265625 744 L 316.47265625 754 L 316.47265625 787 L 326.47265625 777"/></g><g transform="translate(-94,-302) scale(1,1)"><path fill="none" stroke="#000000" d="M 216 754 L 316.47265625 754 L 316.47265625 787 L 216 787 L 216 754" stroke-miterlimit="10"/></g><g transform="translate(-94,-302) scale(1,1)"><path fill="none" stroke="#000000" d="M 216 754 L 226 744 L 326.47265625 744 L 316.47265625 754 L 216 754" stroke-miterlimit="10"/></g><g transform="translate(-94,-302) scale(1,1)"><path fill="none" stroke="#000000" d="M 326.47265625 744 L 316.47265625 754 L 316.47265625 787 L 326.47265625 777 L 326.47265625 744" stroke-miterlimit="10"/></g><g transform="translate(-94,-302) scale(1,1)"><g><path fill="none" stroke="none"/><text fill="#000000" stroke="none" font-family="Arial" font-size="13px" font-style="normal" font-weight="bold" text-decoration="none" x="228.8154296875" y="773.5">任务子线程 1</text><path fill="none" stroke="#000000" d="M 307.1572265625 773.5 L 226.3154296875 773.5" stroke-miterlimit="10"/></g></g><g transform="translate(-94,-302) scale(1,1)"><path fill="#C0C0C0" stroke="none" d="M 391 761 L 491.47265625 761 L 491.47265625 794 L 391 794" opacity="0.2"/></g><g transform="translate(-94,-302) scale(1,1)"><path fill="#C0C0C0" stroke="none" d="M 391 761 L 401 751 L 501.47265625 751 L 491.47265625 761" opacity="0.2"/></g><g transform="translate(-94,-302) scale(1,1)"><path fill="#C0C0C0" stroke="none" d="M 501.47265625 751 L 491.47265625 761 L 491.47265625 794 L 501.47265625 784" opacity="0.2"/></g><g transform="translate(-94,-302) scale(1,1)"><path fill="#ffffff" stroke="none" d="M 384 754 L 484.47265625 754 L 484.47265625 787 L 384 787"/></g><g transform="translate(-94,-302) scale(1,1)"><path fill="#ffffff" stroke="none" d="M 384 754 L 394 744 L 494.47265625 744 L 484.47265625 754"/></g><g transform="translate(-94,-302) scale(1,1)"><path fill="#ffffff" stroke="none" d="M 494.47265625 744 L 484.47265625 754 L 484.47265625 787 L 494.47265625 777"/></g><g transform="translate(-94,-302) scale(1,1)"><path fill="none" stroke="#000000" d="M 384 754 L 484.47265625 754 L 484.47265625 787 L 384 787 L 384 754" stroke-miterlimit="10"/></g><g transform="translate(-94,-302) scale(1,1)"><path fill="none" stroke="#000000" d="M 384 754 L 394 744 L 494.47265625 744 L 484.47265625 754 L 384 754" stroke-miterlimit="10"/></g><g transform="translate(-94,-302) scale(1,1)"><path fill="none" stroke="#000000" d="M 494.47265625 744 L 484.47265625 754 L 484.47265625 787 L 494.47265625 777 L 494.47265625 744" stroke-miterlimit="10"/></g><g transform="translate(-94,-302) scale(1,1)"><g><path fill="none" stroke="none"/><text fill="#000000" stroke="none" font-family="Arial" font-size="13px" font-style="normal" font-weight="bold" text-decoration="none" x="396.8154296875" y="773.5">任务子线程 2</text><path fill="none" stroke="#000000" d="M 475.1572265625 773.5 L 394.3154296875 773.5" stroke-miterlimit="10"/></g></g><g transform="translate(-94,-302) scale(1,1)"><path fill="#C0C0C0" stroke="none" d="M 543 761 L 643.47265625 761 L 643.47265625 794 L 543 794" opacity="0.2"/></g><g transform="translate(-94,-302) scale(1,1)"><path fill="#C0C0C0" stroke="none" d="M 543 761 L 553 751 L 653.47265625 751 L 643.47265625 761" opacity="0.2"/></g><g transform="translate(-94,-302) scale(1,1)"><path fill="#C0C0C0" stroke="none" d="M 653.47265625 751 L 643.47265625 761 L 643.47265625 794 L 653.47265625 784" opacity="0.2"/></g><g transform="translate(-94,-302) scale(1,1)"><path fill="#ffffff" stroke="none" d="M 536 754 L 636.47265625 754 L 636.47265625 787 L 536 787"/></g><g transform="translate(-94,-302) scale(1,1)"><path fill="#ffffff" stroke="none" d="M 536 754 L 546 744 L 646.47265625 744 L 636.47265625 754"/></g><g transform="translate(-94,-302) scale(1,1)"><path fill="#ffffff" stroke="none" d="M 646.47265625 744 L 636.47265625 754 L 636.47265625 787 L 646.47265625 777"/></g><g transform="translate(-94,-302) scale(1,1)"><path fill="none" stroke="#000000" d="M 536 754 L 636.47265625 754 L 636.47265625 787 L 536 787 L 536 754" stroke-miterlimit="10"/></g><g transform="translate(-94,-302) scale(1,1)"><path fill="none" stroke="#000000" d="M 536 754 L 546 744 L 646.47265625 744 L 636.47265625 754 L 536 754" stroke-miterlimit="10"/></g><g transform="translate(-94,-302) scale(1,1)"><path fill="none" stroke="#000000" d="M 646.47265625 744 L 636.47265625 754 L 636.47265625 787 L 646.47265625 777 L 646.47265625 744" stroke-miterlimit="10"/></g><g transform="translate(-94,-302) scale(1,1)"><g><path fill="none" stroke="none"/><text fill="#000000" stroke="none" font-family="Arial" font-size="13px" font-style="normal" font-weight="bold" text-decoration="none" x="548.8154296875" y="773.5">任务子线程 3</text><path fill="none" stroke="#000000" d="M 627.1572265625 773.5 L 546.3154296875 773.5" stroke-miterlimit="10"/></g></g><g transform="translate(-94,-302) scale(1,1)"><rect fill="#C0C0C0" stroke="none" x="287" y="599" width="328" height="40" opacity="0.2"/></g><g transform="translate(-94,-302) scale(1,1)"><rect fill="#ffffff" stroke="none" x="280" y="592" width="328" height="40"/></g><g transform="translate(-94,-302) scale(1,1)"><path fill="none" stroke="#000000" d="M 280 592 L 608 592 L 608 632 L 280 632 L 280 592 Z Z" stroke-miterlimit="10"/></g><g transform="translate(-94,-302) scale(1,1)"><rect fill="#ffffff" stroke="none" x="280" y="592" width="328" height="40"/></g><g transform="translate(-94,-302) scale(1,1)"><path fill="none" stroke="#000000" d="M 280 592 L 608 592 L 608 632 L 280 632 L 280 592 Z Z" stroke-miterlimit="10"/></g><g transform="translate(-94,-302) scale(1,1)"><g><path fill="none" stroke="none"/><text fill="#000000" stroke="none" font-family="Arial" font-size="13px" font-style="normal" font-weight="bold" text-decoration="none" x="418" y="611.5">任务队列</text><path fill="none" stroke="#000000" d="M 472 611.5 L 416 611.5" stroke-miterlimit="10"/></g></g><g transform="translate(-94,-302) scale(1,1)"><path fill="none" stroke="#000000" d="M 454 408 L 454 560" stroke-miterlimit="10"/></g><g transform="translate(-94,-302) scale(1,1)"><path fill="none" stroke="#000000" d="M 449.790482243984 549.8373251423759 L 454 560 L 458.209517756016 549.8373251423759" stroke-miterlimit="10"/></g><g transform="translate(-94,-302) scale(1,1)"><g><path fill="none" stroke="none"/><text fill="#000000" stroke="none" font-family="Arial" font-size="13px" font-style="normal" font-weight="normal" text-decoration="none" x="466.5" y="489.5">+发送任务消息 推送至任务队列中</text></g></g><g transform="translate(-94,-302) scale(1,1)"><path fill="none" stroke="#000000" d="M 216 766 L 176 766 L 176 357 L 368 357" stroke-miterlimit="10"/></g><g transform="translate(-94,-302) scale(1,1)"><path fill="none" stroke="#000000" d="M 357.83732514237585 361.209517756016 L 368 357 L 357.83732514237585 352.790482243984" stroke-miterlimit="10"/></g><g transform="translate(-94,-302) scale(1,1)"><g><path fill="none" stroke="none"/><text fill="#000000" stroke="none" font-family="Arial" font-size="13px" font-style="normal" font-weight="normal" text-decoration="none" x="111.5" y="538.5">+PostReq</text></g></g><g transform="translate(-94,-302) scale(1,1)"><path fill="none" stroke="#000000" d="M 297 743 L 420 633" stroke-miterlimit="10"/></g><g transform="translate(-94,-302) scale(1,1)"><path fill="none" stroke="#000000" d="M 415.2308833395484 642.9123925607798 L 420 633 L 409.61860527161446 636.6368452666354" stroke-miterlimit="10"/></g><g transform="translate(-94,-302) scale(1,1)"><g><path fill="none" stroke="none"/><text fill="#000000" stroke="none" font-family="Arial" font-size="13px" font-style="normal" font-weight="normal" text-decoration="none" x="206.5" y="695.5">+获取一个消息进行处理</text></g></g><g transform="translate(-94,-302) scale(1,1)"><path fill="none" stroke="#000000" d="M 440 743 L 443 633" stroke-miterlimit="10"/></g><g transform="translate(-94,-302) scale(1,1)"><path fill="none" stroke="#000000" d="M 446.9308922659205 643.2736598149698 L 443 633 L 438.5149860545772 643.044135100115" stroke-miterlimit="10"/></g><g transform="translate(-94,-302) scale(1,1)"><path fill="none" stroke="#000000" d="M 569 743 L 464 633" stroke-miterlimit="10"/></g><g transform="translate(-94,-302) scale(1,1)"><path fill="none" stroke="#000000" d="M 474.0620585175945 637.4446572858326 L 464 633 L 467.97210250362457 643.2577971173494" stroke-miterlimit="10"/></g></g></svg>