<svg version="1.1" xmlns="http://www.w3.org/2000/svg" xmlns:xlink="http://www.w3.org/1999/xlink" width="484" height="436"><defs/><g><text fill="#eeeeee" stroke="none" font-family="Arial" font-size="24px" font-style="normal" font-weight="normal" text-decoration="none" x="0" y="0">UNREGISTERED</text><text fill="#eeeeee" stroke="none" font-family="Arial" font-size="24px" font-style="normal" font-weight="normal" text-decoration="none" x="0" y="30">UNREGISTERED</text><text fill="#eeeeee" stroke="none" font-family="Arial" font-size="24px" font-style="normal" font-weight="normal" text-decoration="none" x="0" y="60">UNREGISTERED</text><text fill="#eeeeee" stroke="none" font-family="Arial" font-size="24px" font-style="normal" font-weight="normal" text-decoration="none" x="0" y="90">UNREGISTERED</text><text fill="#eeeeee" stroke="none" font-family="Arial" font-size="24px" font-style="normal" font-weight="normal" text-decoration="none" x="0" y="120">UNREGISTERED</text><text fill="#eeeeee" stroke="none" font-family="Arial" font-size="24px" font-style="normal" font-weight="normal" text-decoration="none" x="0" y="150">UNREGISTERED</text><text fill="#eeeeee" stroke="none" font-family="Arial" font-size="24px" font-style="normal" font-weight="normal" text-decoration="none" x="0" y="180">UNREGISTERED</text><text fill="#eeeeee" stroke="none" font-family="Arial" font-size="24px" font-style="normal" font-weight="normal" text-decoration="none" x="0" y="210">UNREGISTERED</text><text fill="#eeeeee" stroke="none" font-family="Arial" font-size="24px" font-style="normal" font-weight="normal" text-decoration="none" x="0" y="240">UNREGISTERED</text><text fill="#eeeeee" stroke="none" font-family="Arial" font-size="24px" font-style="normal" font-weight="normal" text-decoration="none" x="0" y="270">UNREGISTERED</text><text fill="#eeeeee" stroke="none" font-family="Arial" font-size="24px" font-style="normal" font-weight="normal" text-decoration="none" x="0" y="300">UNREGISTERED</text><text fill="#eeeeee" stroke="none" font-family="Arial" font-size="24px" font-style="normal" font-weight="normal" text-decoration="none" x="0" y="330">UNREGISTERED</text><text fill="#eeeeee" stroke="none" font-family="Arial" font-size="24px" font-style="normal" font-weight="normal" text-decoration="none" x="0" y="360">UNREGISTERED</text><text fill="#eeeeee" stroke="none" font-family="Arial" font-size="24px" font-style="normal" font-weight="normal" text-decoration="none" x="0" y="390">UNREGISTERED</text><text fill="#eeeeee" stroke="none" font-family="Arial" font-size="24px" font-style="normal" font-weight="normal" text-decoration="none" x="0" y="420">UNREGISTERED</text><text fill="#eeeeee" stroke="none" font-family="Arial" font-size="24px" font-style="normal" font-weight="normal" text-decoration="none" x="200" y="0">UNREGISTERED</text><text fill="#eeeeee" stroke="none" font-family="Arial" font-size="24px" font-style="normal" font-weight="normal" text-decoration="none" x="200" y="30">UNREGISTERED</text><text fill="#eeeeee" stroke="none" font-family="Arial" font-size="24px" font-style="normal" font-weight="normal" text-decoration="none" x="200" y="60">UNREGISTERED</text><text fill="#eeeeee" stroke="none" font-family="Arial" font-size="24px" font-style="normal" font-weight="normal" text-decoration="none" x="200" y="90">UNREGISTERED</text><text fill="#eeeeee" stroke="none" font-family="Arial" font-size="24px" font-style="normal" font-weight="normal" text-decoration="none" x="200" y="120">UNREGISTERED</text><text fill="#eeeeee" stroke="none" font-family="Arial" font-size="24px" font-style="normal" font-weight="normal" text-decoration="none" x="200" y="150">UNREGISTERED</text><text fill="#eeeeee" stroke="none" font-family="Arial" font-size="24px" font-style="normal" font-weight="normal" text-decoration="none" x="200" y="180">UNREGISTERED</text><text fill="#eeeeee" stroke="none" font-family="Arial" font-size="24px" font-style="normal" font-weight="normal" text-decoration="none" x="200" y="210">UNREGISTERED</text><text fill="#eeeeee" stroke="none" font-family="Arial" font-size="24px" font-style="normal" font-weight="normal" text-decoration="none" x="200" y="240">UNREGISTERED</text><text fill="#eeeeee" stroke="none" font-family="Arial" font-size="24px" font-style="normal" font-weight="normal" text-decoration="none" x="200" y="270">UNREGISTERED</text><text fill="#eeeeee" stroke="none" font-family="Arial" font-size="24px" font-style="normal" font-weight="normal" text-decoration="none" x="200" y="300">UNREGISTERED</text><text fill="#eeeeee" stroke="none" font-family="Arial" font-size="24px" font-style="normal" font-weight="normal" text-decoration="none" x="200" y="330">UNREGISTERED</text><text fill="#eeeeee" stroke="none" font-family="Arial" font-size="24px" font-style="normal" font-weight="normal" text-decoration="none" x="200" y="360">UNREGISTERED</text><text fill="#eeeeee" stroke="none" font-family="Arial" font-size="24px" font-style="normal" font-weight="normal" text-decoration="none" x="200" y="390">UNREGISTERED</text><text fill="#eeeeee" stroke="none" font-family="Arial" font-size="24px" font-style="normal" font-weight="normal" text-decoration="none" x="200" y="420">UNREGISTERED</text><text fill="#eeeeee" stroke="none" font-family="Arial" font-size="24px" font-style="normal" font-weight="normal" text-decoration="none" x="400" y="0">UNREGISTERED</text><text fill="#eeeeee" stroke="none" font-family="Arial" font-size="24px" font-style="normal" font-weight="normal" text-decoration="none" x="400" y="30">UNREGISTERED</text><text fill="#eeeeee" stroke="none" font-family="Arial" font-size="24px" font-style="normal" font-weight="normal" text-decoration="none" x="400" y="60">UNREGISTERED</text><text fill="#eeeeee" stroke="none" font-family="Arial" font-size="24px" font-style="normal" font-weight="normal" text-decoration="none" x="400" y="90">UNREGISTERED</text><text fill="#eeeeee" stroke="none" font-family="Arial" font-size="24px" font-style="normal" font-weight="normal" text-decoration="none" x="400" y="120">UNREGISTERED</text><text fill="#eeeeee" stroke="none" font-family="Arial" font-size="24px" font-style="normal" font-weight="normal" text-decoration="none" x="400" y="150">UNREGISTERED</text><text fill="#eeeeee" stroke="none" font-family="Arial" font-size="24px" font-style="normal" font-weight="normal" text-decoration="none" x="400" y="180">UNREGISTERED</text><text fill="#eeeeee" stroke="none" font-family="Arial" font-size="24px" font-style="normal" font-weight="normal" text-decoration="none" x="400" y="210">UNREGISTERED</text><text fill="#eeeeee" stroke="none" font-family="Arial" font-size="24px" font-style="normal" font-weight="normal" text-decoration="none" x="400" y="240">UNREGISTERED</text><text fill="#eeeeee" stroke="none" font-family="Arial" font-size="24px" font-style="normal" font-weight="normal" text-decoration="none" x="400" y="270">UNREGISTERED</text><text fill="#eeeeee" stroke="none" font-family="Arial" font-size="24px" font-style="normal" font-weight="normal" text-decoration="none" x="400" y="300">UNREGISTERED</text><text fill="#eeeeee" stroke="none" font-family="Arial" font-size="24px" font-style="normal" font-weight="normal" text-decoration="none" x="400" y="330">UNREGISTERED</text><text fill="#eeeeee" stroke="none" font-family="Arial" font-size="24px" font-style="normal" font-weight="normal" text-decoration="none" x="400" y="360">UNREGISTERED</text><text fill="#eeeeee" stroke="none" font-family="Arial" font-size="24px" font-style="normal" font-weight="normal" text-decoration="none" x="400" y="390">UNREGISTERED</text><text fill="#eeeeee" stroke="none" font-family="Arial" font-size="24px" font-style="normal" font-weight="normal" text-decoration="none" x="400" y="420">UNREGISTERED</text><g transform="translate(-246,-342) scale(1,1)"><rect fill="#C0C0C0" stroke="none" x="263" y="551" width="464" height="224" opacity="0.2"/></g><g transform="translate(-246,-342) scale(1,1)"><rect fill="#ffffff" stroke="none" x="256" y="544" width="464" height="224"/></g><g transform="translate(-246,-342) scale(1,1)"><path fill="none" stroke="#000000" d="M 256 544 L 720 544 L 720 768 L 256 768 L 256 544 Z Z" stroke-miterlimit="10"/></g><g transform="translate(-246,-342) scale(1,1)"><g><path fill="none" stroke="none"/><text fill="#000000" stroke="none" font-family="Arial" font-size="13px" font-style="normal" font-weight="bold" text-decoration="none" x="455.5" y="563.5">任务线程池</text></g></g><g transform="translate(-246,-342) scale(1,1)"><path fill="#C0C0C0" stroke="none" d="M 399 376 C 399 366.6111584 440.6375136 359 492 359 C 543.3624864 359 585 366.6111584 585 376 C 585 385.3888416 543.3624864 393 492 393 C 440.6375136 393 399 385.3888416 399 376 Z" opacity="0.2"/></g><g transform="translate(-246,-342) scale(1,1)"><path fill="#ffffff" stroke="none" d="M 392 369 C 392 359.6111584 433.6375136 352 485 352 C 536.3624864 352 578 359.6111584 578 369 C 578 378.3888416 536.3624864 386 485 386 C 433.6375136 386 392 378.3888416 392 369 Z"/></g><g transform="translate(-246,-342) scale(1,1)"><path fill="none" stroke="#000000" d="M 392 369 C 392 359.6111584 433.6375136 352 485 352 C 536.3624864 352 578 359.6111584 578 369 C 578 378.3888416 536.3624864 386 485 386 C 433.6375136 386 392 378.3888416 392 369 Z" stroke-miterlimit="10"/></g><g transform="translate(-246,-342) scale(1,1)"><g><path fill="none" stroke="none"/><text fill="#000000" stroke="none" font-family="Arial" font-size="13px" font-style="normal" font-weight="bold" text-decoration="none" x="427.912353515625" y="376">PuAdapterApp 线程</text></g></g><g transform="translate(-246,-342) scale(1,1)"><path fill="#C0C0C0" stroke="none" d="M 303 680 C 303 670.6111584 325.6096176 663 353.5 663 C 381.3903824 663 404 670.6111584 404 680 C 404 689.3888416 381.3903824 697 353.5 697 C 325.6096176 697 303 689.3888416 303 680 Z" opacity="0.2"/></g><g transform="translate(-246,-342) scale(1,1)"><path fill="#ffffff" stroke="none" d="M 296 673 C 296 663.6111584 318.6096176 656 346.5 656 C 374.3903824 656 397 663.6111584 397 673 C 397 682.3888416 374.3903824 690 346.5 690 C 318.6096176 690 296 682.3888416 296 673 Z"/></g><g transform="translate(-246,-342) scale(1,1)"><path fill="none" stroke="#000000" d="M 296 673 C 296 663.6111584 318.6096176 656 346.5 656 C 374.3903824 656 397 663.6111584 397 673 C 397 682.3888416 374.3903824 690 346.5 690 C 318.6096176 690 296 682.3888416 296 673 Z" stroke-miterlimit="10"/></g><g transform="translate(-246,-342) scale(1,1)"><g><path fill="none" stroke="none"/><text fill="#000000" stroke="none" font-family="Arial" font-size="13px" font-style="normal" font-weight="bold" text-decoration="none" x="329.885009765625" y="680">线程1</text></g></g><g transform="translate(-246,-342) scale(1,1)"><path fill="#C0C0C0" stroke="none" d="M 583 680 C 583 670.6111584 605.6096176 663 633.5 663 C 661.3903824 663 684 670.6111584 684 680 C 684 689.3888416 661.3903824 697 633.5 697 C 605.6096176 697 583 689.3888416 583 680 Z" opacity="0.2"/></g><g transform="translate(-246,-342) scale(1,1)"><path fill="#ffffff" stroke="none" d="M 576 673 C 576 663.6111584 598.6096176 656 626.5 656 C 654.3903824 656 677 663.6111584 677 673 C 677 682.3888416 654.3903824 690 626.5 690 C 598.6096176 690 576 682.3888416 576 673 Z"/></g><g transform="translate(-246,-342) scale(1,1)"><path fill="none" stroke="#000000" d="M 576 673 C 576 663.6111584 598.6096176 656 626.5 656 C 654.3903824 656 677 663.6111584 677 673 C 677 682.3888416 654.3903824 690 626.5 690 C 598.6096176 690 576 682.3888416 576 673 Z" stroke-miterlimit="10"/></g><g transform="translate(-246,-342) scale(1,1)"><g><path fill="none" stroke="none"/><text fill="#000000" stroke="none" font-family="Arial" font-size="13px" font-style="normal" font-weight="bold" text-decoration="none" x="609.885009765625" y="680">线程3</text></g></g><g transform="translate(-246,-342) scale(1,1)"><path fill="#C0C0C0" stroke="none" d="M 447 680 C 447 670.6111584 469.6096176 663 497.5 663 C 525.3903824 663 548 670.6111584 548 680 C 548 689.3888416 525.3903824 697 497.5 697 C 469.6096176 697 447 689.3888416 447 680 Z" opacity="0.2"/></g><g transform="translate(-246,-342) scale(1,1)"><path fill="#ffffff" stroke="none" d="M 440 673 C 440 663.6111584 462.6096176 656 490.5 656 C 518.3903824 656 541 663.6111584 541 673 C 541 682.3888416 518.3903824 690 490.5 690 C 462.6096176 690 440 682.3888416 440 673 Z"/></g><g transform="translate(-246,-342) scale(1,1)"><path fill="none" stroke="#000000" d="M 440 673 C 440 663.6111584 462.6096176 656 490.5 656 C 518.3903824 656 541 663.6111584 541 673 C 541 682.3888416 518.3903824 690 490.5 690 C 462.6096176 690 440 682.3888416 440 673 Z" stroke-miterlimit="10"/></g><g transform="translate(-246,-342) scale(1,1)"><g><path fill="none" stroke="none"/><text fill="#000000" stroke="none" font-family="Arial" font-size="13px" font-style="normal" font-weight="bold" text-decoration="none" x="473.885009765625" y="680">线程2</text></g></g></g></svg>